<?xml version="1.0" encoding="UTF-8"?>
<svg xmlns="http://www.w3.org/2000/svg" xmlns:xlink="http://www.w3.org/1999/xlink" height="466.7"
    preserveAspectRatio="xMidYMid meet" version="1.0" viewBox="0.0 -1.6 462.6 466.7" width="462.6"
    zoomAndPan="magnify">
    <defs>
        <clipPath id="a">
            <path d="M 0 109 L 356 109 L 356 465.050781 L 0 465.050781 Z M 0 109" />
        </clipPath>
        <clipPath id="b">
            <path d="M 400 119 L 462.601562 119 L 462.601562 130 L 400 130 Z M 400 119" />
        </clipPath>
    </defs>
    <g>
        <g id="change1_1">
            <path
                d="M 253.753906 231.484375 L 233.539062 211.273438 L 329.941406 114.875 L 350.152344 135.085938 L 253.753906 231.484375"
                fill="#f78d11" />
        </g>
        <g id="change2_1">
            <path
                d="M 25.191406 460.042969 L 4.980469 439.835938 L 233.539062 211.273438 L 253.753906 231.484375 L 25.191406 460.042969"
                fill="#343434" />
        </g>
        <g clip-path="url(#a)" id="change2_6">
            <path
                d="M 165.671875 312.496094 C 123.867188 354.300781 82.0625 396.105469 40.257812 437.910156 C 35.234375 442.929688 30.214844 447.953125 25.191406 452.972656 C 20.8125 448.59375 16.429688 444.214844 12.050781 439.835938 C 39.054688 412.832031 66.058594 385.828125 93.058594 358.824219 C 134.863281 317.019531 176.671875 275.214844 218.476562 233.410156 C 223.496094 228.386719 228.519531 223.363281 233.539062 218.34375 C 237.921875 222.722656 242.300781 227.105469 246.683594 231.484375 C 219.679688 258.488281 192.675781 285.492188 165.671875 312.496094 Z M 253.753906 224.414062 C 249.371094 220.035156 244.992188 215.652344 240.609375 211.273438 C 270.386719 181.496094 300.164062 151.71875 329.941406 121.945312 C 334.320312 126.324219 338.699219 130.703125 343.082031 135.085938 C 313.304688 164.863281 283.527344 194.636719 253.753906 224.414062 Z M 333.476562 111.339844 C 331.550781 109.410156 328.332031 109.410156 326.40625 111.339844 C 294.328125 143.414062 262.25 175.492188 230.171875 207.566406 C 230.117188 207.625 230.0625 207.679688 230.003906 207.738281 C 201.820312 235.917969 173.640625 264.101562 145.460938 292.28125 C 103.652344 334.085938 61.847656 375.894531 20.042969 417.699219 C 13.84375 423.898438 7.644531 430.097656 1.445312 436.296875 C -0.480469 438.222656 -0.480469 441.441406 1.445312 443.367188 C 8.183594 450.105469 14.917969 456.84375 21.65625 463.582031 C 22.757812 464.679688 24 465.097656 25.191406 465.046875 C 26.386719 465.097656 27.628906 464.679688 28.726562 463.582031 C 56.910156 435.398438 85.089844 407.21875 113.273438 379.035156 C 155.078125 337.230469 196.882812 295.425781 238.6875 253.621094 C 244.890625 247.421875 251.089844 241.222656 257.289062 235.019531 C 289.367188 202.945312 321.441406 170.867188 353.519531 138.789062 C 353.574219 138.734375 353.632812 138.679688 353.6875 138.621094 C 355.613281 136.695312 355.613281 133.476562 353.6875 131.550781 C 346.949219 124.8125 340.210938 118.074219 333.476562 111.339844"
                fill="#343434" />
        </g>
        <g id="change2_2">
            <path
                d="M 388.824219 83.269531 C 401.265625 70.832031 413.703125 58.394531 426.140625 45.953125 C 430.707031 41.390625 423.636719 34.320312 419.070312 38.882812 C 406.632812 51.320312 394.195312 63.761719 381.753906 76.199219 C 377.191406 80.761719 384.261719 87.835938 388.824219 83.269531"
                fill="#343434" />
        </g>
        <g id="change2_3">
            <path
                d="M 293.753906 85.757812 C 298.316406 90.320312 305.386719 83.25 300.824219 78.6875 C 288.382812 66.246094 275.945312 53.808594 263.507812 41.371094 C 258.941406 36.808594 251.871094 43.878906 256.4375 48.441406 C 268.875 60.878906 281.3125 73.320312 293.753906 85.757812"
                fill="#343434" />
        </g>
        <g id="change2_4">
            <path
                d="M 343.023438 57.609375 C 343.023438 40.019531 343.023438 22.429688 343.023438 4.839844 C 343.023438 -1.609375 333.023438 -1.609375 333.023438 4.839844 C 333.023438 22.429688 333.023438 40.019531 333.023438 57.609375 C 333.023438 64.058594 343.023438 64.058594 343.023438 57.609375"
                fill="#343434" />
        </g>
        <g clip-path="url(#b)" id="change2_7">
            <path
                d="M 457.761719 119.574219 C 440.171875 119.574219 422.578125 119.574219 404.988281 119.574219 C 398.539062 119.574219 398.539062 129.574219 404.988281 129.574219 C 422.578125 129.574219 440.171875 129.574219 457.761719 129.574219 C 464.210938 129.574219 464.210938 119.574219 457.761719 119.574219"
                fill="#343434" />
        </g>
        <g id="change2_5">
            <path
                d="M 385.714844 163.578125 C 381.152344 159.015625 374.082031 166.085938 378.644531 170.652344 C 391.085938 183.089844 403.523438 195.527344 415.960938 207.96875 C 420.527344 212.53125 427.597656 205.460938 423.03125 200.894531 C 410.59375 188.457031 398.15625 176.019531 385.714844 163.578125"
                fill="#343434" />
        </g>
    </g>
</svg>